<?xml version="1.0" standalone="no"?>
<!DOCTYPE svg PUBLIC "-//W3C//DTD SVG 20010904//EN"
 "http://www.w3.org/TR/2001/REC-SVG-20010904/DTD/svg10.dtd">
<svg version="1.0" xmlns="http://www.w3.org/2000/svg"
 width="775.000000pt" height="774.000000pt" viewBox="0 0 775.000000 774.000000"
 preserveAspectRatio="xMidYMid meet">

<g transform="translate(0.000000,774.000000) scale(0.100000,-0.100000)"
fill="#000000" stroke="none">
<path d="M4510 4576 l0 -66 -38 0 c-36 0 -42 -4 -90 -72 -49 -69 -52 -76 -52
-135 l0 -63 180 0 180 0 -2 198 c-1 108 -3 169 -5 135 -3 -55 -7 -63 -23 -63
-18 0 -20 7 -20 60 0 52 -3 60 -19 60 -10 0 -39 3 -65 6 l-46 7 0 -67z"/>
<path d="M890 4370 l0 -140 155 0 155 0 0 140 0 140 -155 0 -155 0 0 -140z"/>
<path d="M2590 4504 c-77 -13 -139 -28 -172 -41 l-38 -15 0 -226 0 -225 28 39
c35 48 86 87 154 119 42 20 69 25 131 25 42 0 77 -2 77 -5 0 -3 -11 -43 -25
-91 -45 -157 -57 -452 -25 -629 14 -76 51 -205 59 -205 3 0 29 13 56 28 l50
27 5 110 c3 61 9 116 13 122 4 7 23 20 42 29 l35 16 0 107 c0 106 18 208 44
260 14 26 13 30 -27 79 -23 28 -57 63 -74 77 l-33 27 0 178 c0 176 0 178 -22
184 -28 8 -244 16 -278 10z"/>
<path d="M3240 4504 c-14 -3 -51 -9 -84 -16 l-59 -11 34 -18 c77 -39 188 -168
213 -245 5 -16 17 -23 49 -27 23 -3 43 -4 44 -3 2 2 -10 45 -25 97 -16 52 -37
124 -48 162 l-19 67 -40 -1 c-22 -1 -51 -3 -65 -5z"/>
<path d="M6133 4074 c-50 -104 -137 -283 -192 -398 l-101 -208 0 -224 c0 -123
1 -224 3 -224 1 0 29 9 62 19 l60 18 133 289 132 288 -2 314 -3 315 -92 -189z"/>
<path d="M890 3395 l0 -465 40 0 40 0 0 335 0 335 79 0 78 0 37 -52 36 -52 0
182 0 182 -155 0 -155 0 0 -465z"/>
<path d="M4330 3395 l0 -465 90 0 90 0 0 -45 0 -45 65 0 65 0 0 45 c0 38 3 45
19 45 16 0 21 -8 24 -47 2 -27 4 32 5 130 l2 177 -85 0 -85 0 0 205 0 205 85
0 85 0 0 130 0 130 -180 0 -180 0 0 -465z"/>
<path d="M2381 3164 l-1 -201 73 -23 c79 -25 279 -38 382 -25 l55 6 0 155 0
155 -29 -16 c-77 -39 -235 -37 -324 5 -45 21 -111 79 -139 120 -16 24 -17 16
-17 -176z"/>
<path d="M3229 3138 c-45 -63 -102 -114 -162 -146 -21 -11 -35 -22 -30 -25 22
-12 114 -38 163 -44 l55 -8 105 130 c58 71 109 135 112 140 4 6 -31 10 -98 10
l-103 0 -42 -57z"/>
<path d="M6207 3135 c-20 -42 -18 -51 7 -32 12 9 17 23 14 42 l-3 28 -18 -38z"/>
<path d="M3640 2490 c0 -133 2 -160 15 -160 11 0 15 16 17 68 l3 67 63 3 c46
2 62 7 62 17 0 12 -15 15 -65 15 l-66 0 3 58 3 57 68 3 c51 2 67 6 67 17 0 12
-17 15 -85 15 l-85 0 0 -160z"/>
<path d="M4150 2490 c0 -136 2 -160 15 -160 13 0 15 24 15 160 0 136 -2 160
-15 160 -13 0 -15 -24 -15 -160z"/>
<path d="M4560 2490 c0 -136 2 -160 15 -160 13 0 15 20 15 121 0 71 4 118 9
114 5 -3 42 -57 82 -120 103 -163 109 -160 109 45 0 152 -1 160 -20 160 -18 0
-20 -8 -22 -119 l-3 -120 -75 120 c-105 166 -110 164 -110 -41z"/>
<path d="M5183 2490 c-52 -137 -58 -160 -43 -160 11 0 24 14 34 40 l16 40 73
0 74 0 12 -40 c9 -29 17 -40 31 -40 11 0 20 1 20 3 0 1 -27 72 -59 157 -45
118 -64 156 -78 158 -16 2 -29 -23 -80 -158z m107 38 c13 -35 25 -69 27 -75 4
-10 -10 -13 -51 -13 -38 0 -56 4 -56 13 0 19 43 137 51 137 3 0 17 -28 29 -62z"/>
<path d="M5740 2490 c0 -136 2 -160 15 -160 13 0 15 20 15 121 0 71 4 118 9
114 5 -3 42 -57 82 -120 103 -163 109 -160 109 45 0 152 -1 160 -20 160 -18 0
-20 -8 -22 -119 l-3 -120 -75 120 c-105 166 -110 164 -110 -41z"/>
<path d="M6400 2633 c-52 -27 -80 -75 -80 -140 0 -124 90 -190 195 -144 38 17
45 24 36 35 -9 11 -18 10 -52 -7 -38 -19 -43 -19 -74 -4 -47 22 -70 61 -70
117 0 56 23 95 70 117 31 15 36 15 73 -5 33 -17 42 -18 51 -8 9 10 5 17 -13
30 -40 26 -96 29 -136 9z"/>
<path d="M6900 2490 l0 -160 95 0 c77 0 95 3 95 15 0 11 -18 15 -77 17 l-78 3
-3 53 -3 52 70 0 c56 0 71 3 71 15 0 11 -16 15 -67 17 l-68 3 0 55 0 55 78 3
c59 2 77 6 77 17 0 12 -18 15 -95 15 l-95 0 0 -160z"/>
</g>
</svg>
